# xmcd CD database file
#
# Track frame offsets:
#	150
#	15711
#	35299
#	51097
#	68322
#	90251
#	107182
#	127895
#	142427
#	161425
#	177374
#	198859
#	214451
#
# Disc length: 3111 seconds
#
# Revision: 0
# Processed by: cddbd v1.5.2PL0 Copyright (c) Steve Scherf et al.
# Submitted via: CDex 1.82
#
DISCID=ae0c250d
DTITLE=Torsten Goods - Thank You Baby!
DYEAR=2015
DGENRE=Jazz
TTITLE0=Torsten Goods - Work Song
TTITLE1=Torsten Goods - Brother, Where Are You
TTITLE2=Torsten Goods - Midst Of Your Love
TTITLE3=Torsten Goods - How Sweet It Is
TTITLE4=Torsten Goods - Lord, I Need A Woman
TTITLE5=Torsten Goods - Kyrie
TTITLE6=Torsten Goods - Nobody Knows The Trouble I've Seen
TTITLE7=Torsten Goods - Hallelujah, I Love Her So
TTITLE8=Torsten Goods - Angel
TTITLE9=Torsten Goods - Sing Hallelujah
TTITLE10=Torsten Goods - Afro Blue
TTITLE11=Torsten Goods - Where Did You Sleep Last Night
TTITLE12=Torsten Goods - Everything Must Change
EXTD=YEAR: 2015
EXTT0=
EXTT1=
EXTT2=
EXTT3=
EXTT4=
EXTT5=
EXTT6=
EXTT7=
EXTT8=
EXTT9=
EXTT10=
EXTT11=
EXTT12=
PLAYORDER=
